PERFORMER "Die Toten Hosen"
TITLE "In aller Stille (2008)"
FILE "Die Toten Hosen - In aller Stille (2008).mp3" MP3
  TRACK 01 AUDIO
    TITLE "Strom"
    INDEX 01 00:00:00
  TRACK 02 AUDIO
    TITLE "Innen alles neu"
    INDEX 01 02:48:06
  TRACK 03 AUDIO
    TITLE "Disco"
    INDEX 01 05:45:27
  TRACK 04 AUDIO
    TITLE "Teil von mir"
    INDEX 01 09:07:42
  TRACK 05 AUDIO
    TITLE "Auflösen"
    INDEX 01 12:07:69
  TRACK 06 AUDIO
    TITLE "Leben ist tödlich"
    INDEX 01 15:27:40
  TRACK 07 AUDIO
    TITLE "Ertrinken"
    INDEX 01 18:54:40
  TRACK 08 AUDIO
    TITLE "Alles was war"
    INDEX 01 23:07:58
  TRACK 09 AUDIO
    TITLE "Pessimist"
    INDEX 01 26:13:32
  TRACK 10 AUDIO
    TITLE "Wir bleiben stumm"
    INDEX 01 29:00:44
  TRACK 11 AUDIO
    TITLE "Die letzte Schlacht"
    INDEX 01 32:34:44
  TRACK 12 AUDIO
    TITLE "Tauschen gegen dich"
    INDEX 01 35:38:37
  TRACK 13 AUDIO
    TITLE "Angst"
    INDEX 01 38:54:67
  TRACK 14 AUDIO
    TITLE "Bonus Track"
    INDEX 01 42:06:30
